<svg xmlns="http://www.w3.org/2000/svg" xmlns:xlink="http://www.w3.org/1999/xlink" width="500" zoomAndPan="magnify" viewBox="0 0 375 374.999991" height="500" preserveAspectRatio="xMidYMid meet" version="1.0"><defs><clipPath id="41e6da1563"><path d="M 0.15625 0 L 375 0 L 375 375 L 0.15625 375 Z M 0.15625 0 " clip-rule="nonzero"/></clipPath><clipPath id="a55b065a6b"><path d="M 89.933594 151.890625 L 192.46875 151.890625 L 192.46875 201.367188 L 89.933594 201.367188 Z M 89.933594 151.890625 " clip-rule="nonzero"/></clipPath><clipPath id="fe078ddb4a"><path d="M 145.925781 147.6875 L 245 147.6875 L 245 197.160156 L 145.925781 197.160156 Z M 145.925781 147.6875 " clip-rule="nonzero"/></clipPath><clipPath id="101198d43e"><path d="M 195.433594 147.6875 L 244.941406 197.160156 L 145.925781 197.160156 Z M 195.433594 147.6875 " clip-rule="nonzero"/></clipPath><clipPath id="ae9b17f3e1"><path d="M 69.949219 247.511719 L 179.464844 247.511719 L 179.464844 296.988281 L 69.949219 296.988281 Z M 69.949219 247.511719 " clip-rule="nonzero"/></clipPath><clipPath id="4add649550"><path d="M 30.410156 224.261719 L 118.960938 224.261719 L 118.960938 272.476562 L 30.410156 272.476562 Z M 30.410156 224.261719 " clip-rule="nonzero"/></clipPath><clipPath id="5d2580781b"><path d="M 69 223 L 120 223 L 120 274 L 69 274 Z M 69 223 " clip-rule="nonzero"/></clipPath><clipPath id="b555b84721"><path d="M 144.058594 248.929688 L 94.796875 298.191406 L 69.773438 273.171875 L 119.035156 223.910156 Z M 144.058594 248.929688 " clip-rule="nonzero"/></clipPath><clipPath id="a07b75323b"><path d="M 119.4375 273.550781 L 69.796875 273.148438 L 119.035156 223.910156 Z M 119.4375 273.550781 " clip-rule="nonzero"/></clipPath><clipPath id="cc6b693e4e"><path d="M 95.15625 222.144531 L 146.683594 222.144531 L 146.683594 247.511719 L 95.15625 247.511719 Z M 95.15625 222.144531 " clip-rule="nonzero"/></clipPath><clipPath id="c833042a2f"><path d="M 120.914062 222.144531 L 146.675781 247.511719 L 95.15625 247.511719 Z M 120.914062 222.144531 " clip-rule="nonzero"/></clipPath><clipPath id="af5fcdb0a5"><path d="M 240.628906 102.414062 L 344.90625 102.414062 L 344.90625 151.890625 L 240.628906 151.890625 Z M 240.628906 102.414062 " clip-rule="nonzero"/></clipPath><clipPath id="e7216c45f2"><path d="M 56.25 77.679688 L 240.628906 77.679688 L 240.628906 127.152344 L 56.25 127.152344 Z M 56.25 77.679688 " clip-rule="nonzero"/></clipPath><clipPath id="0a3cbf459d"><path d="M 191.121094 102.414062 L 290.261719 102.414062 L 290.261719 151.890625 L 191.121094 151.890625 Z M 191.121094 102.414062 " clip-rule="nonzero"/></clipPath><clipPath id="d83ab646b3"><path d="M 240.628906 102.414062 L 290.136719 151.890625 L 191.121094 151.890625 Z M 240.628906 102.414062 " clip-rule="nonzero"/></clipPath><clipPath id="5223181ceb"><path d="M 118.960938 174.789062 L 218 174.789062 L 218 224.261719 L 118.960938 224.261719 Z M 118.960938 174.789062 " clip-rule="nonzero"/></clipPath><clipPath id="44d38ca348"><path d="M 168.46875 174.789062 L 217.976562 224.261719 L 118.960938 224.261719 Z M 168.46875 174.789062 " clip-rule="nonzero"/></clipPath><clipPath id="40b1c0f24a"><path d="M 168.46875 174.789062 L 251.3125 174.789062 L 251.3125 224.261719 L 168.46875 224.261719 Z M 168.46875 174.789062 " clip-rule="nonzero"/></clipPath></defs><rect x="-37.5" width="450" fill="#ffffff" y="-37.499999" height="449.999989" fill-opacity="1"/><rect x="-37.5" width="450" fill="#ffffff" y="-37.499999" height="449.999989" fill-opacity="1"/><g clip-path="url(#41e6da1563)"><path fill="#013363" d="M 0.15625 0 L 375 0 L 375 374.84375 L 0.15625 374.84375 Z M 0.15625 0 " fill-opacity="1" fill-rule="nonzero"/></g><g clip-path="url(#a55b065a6b)"><path fill="#b7beb9" d="M 89.933594 151.890625 L 192.554688 151.890625 L 192.554688 201.367188 L 89.933594 201.367188 Z M 89.933594 151.890625 " fill-opacity="1" fill-rule="nonzero"/></g><g clip-path="url(#fe078ddb4a)"><g clip-path="url(#101198d43e)"><path fill="#013363" d="M 145.925781 147.6875 L 244.875 147.6875 L 244.875 197.160156 L 145.925781 197.160156 Z M 145.925781 147.6875 " fill-opacity="1" fill-rule="nonzero"/></g></g><g clip-path="url(#ae9b17f3e1)"><path fill="#fd0106" d="M 69.949219 247.511719 L 179.53125 247.511719 L 179.53125 296.988281 L 69.949219 296.988281 Z M 69.949219 247.511719 " fill-opacity="1" fill-rule="nonzero"/></g><g clip-path="url(#4add649550)"><path fill="#b7beb9" d="M 30.410156 224.261719 L 118.929688 224.261719 L 118.929688 272.476562 L 30.410156 272.476562 Z M 30.410156 224.261719 " fill-opacity="1" fill-rule="nonzero"/></g><g clip-path="url(#5d2580781b)"><g clip-path="url(#b555b84721)"><g clip-path="url(#a07b75323b)"><path fill="#fd0106" d="M 144.058594 248.929688 L 94.796875 298.191406 L 69.773438 273.171875 L 119.035156 223.910156 Z M 144.058594 248.929688 " fill-opacity="1" fill-rule="nonzero"/></g></g></g><g clip-path="url(#cc6b693e4e)"><g clip-path="url(#c833042a2f)"><path fill="#013363" d="M 95.15625 222.144531 L 146.683594 222.144531 L 146.683594 247.511719 L 95.15625 247.511719 Z M 95.15625 222.144531 " fill-opacity="1" fill-rule="nonzero"/></g></g><g clip-path="url(#af5fcdb0a5)"><path fill="#59b1cc" d="M 240.628906 102.414062 L 344.988281 102.414062 L 344.988281 151.890625 L 240.628906 151.890625 Z M 240.628906 102.414062 " fill-opacity="1" fill-rule="nonzero"/></g><g clip-path="url(#e7216c45f2)"><path fill="#b7beb9" d="M 56.25 77.679688 L 240.621094 77.679688 L 240.621094 127.152344 L 56.25 127.152344 Z M 56.25 77.679688 " fill-opacity="1" fill-rule="nonzero"/></g><g clip-path="url(#0a3cbf459d)"><g clip-path="url(#d83ab646b3)"><path fill="#59b1cc" d="M 191.121094 102.414062 L 290.070312 102.414062 L 290.070312 151.890625 L 191.121094 151.890625 Z M 191.121094 102.414062 " fill-opacity="1" fill-rule="nonzero"/></g></g><g clip-path="url(#5223181ceb)"><g clip-path="url(#44d38ca348)"><path fill="#ff8a02" d="M 118.960938 174.789062 L 217.910156 174.789062 L 217.910156 224.261719 L 118.960938 224.261719 Z M 118.960938 174.789062 " fill-opacity="1" fill-rule="nonzero"/></g></g><g clip-path="url(#40b1c0f24a)"><path fill="#ff8a02" d="M 168.46875 174.789062 L 251.378906 174.789062 L 251.378906 224.261719 L 168.46875 224.261719 Z M 168.46875 174.789062 " fill-opacity="1" fill-rule="nonzero"/></g></svg>